<svg xmlns="http://www.w3.org/2000/svg" width="24" height="24" viewBox="0 0 48 48">
  <g>
    <path fill="#4285F4" d="M43.611 20.083H42V20H24v8h11.303C34.73 32.364 29.865 36 24 36c-6.627 0-12-5.373-12-12s5.373-12 12-12c2.803 0 5.377.99 7.413 2.626l6.293-6.293C34.583 6.163 29.627 4 24 4 12.954 4 4 12.954 4 24s8.954 20 20 20c11.045 0 19.799-8.955 19.799-20 0-1.341-.138-2.651-.377-3.917z"/>
    <path fill="#34A853" d="M6.306 14.691l6.571 4.819C14.655 16.104 19.001 13 24 13c2.803 0 5.377.99 7.413 2.626l6.293-6.293C34.583 6.163 29.627 4 24 4c-7.732 0-14.41 4.41-17.694 10.691z"/>
    <path fill="#FBBC05" d="M24 44c5.522 0 10.497-1.897 14.355-5.163l-6.627-5.428C29.865 36 24 36 24 36c-5.865 0-10.73-3.636-12.303-8.917l-6.571 4.819C9.59 39.59 16.268 44 24 44z"/>
    <path fill="#EA4335" d="M43.611 20.083H42V20H24v8h11.303c-1.03 2.773-3.13 5.09-5.93 6.409l6.627 5.428C41.799 39.09 44 32.727 44 24c0-1.341-.138-2.651-.389-3.917z"/>
  </g>
</svg> 